<mxfile host="app.diagrams.net" modified="2020-03-24T10:34:41.778Z" agent="Mozilla/5.0 (Windows NT 10.0; WOW64) AppleWebKit/537.36 (KHTML, like Gecko) Chrome/55.0.2883.87 UBrowser/6.2.4098.3 Safari/537.36" etag="IODkvufi_v3_pkgVlId9" version="12.9.1" type="github" pages="2">
  <diagram id="VysLN12CXZ9GEXbmxgV9" name="货箱/架信息管理模块">
    <mxGraphModel dx="1422" dy="776" grid="1" gridSize="10" guides="1" tooltips="1" connect="1" arrows="1" fold="1" page="1" pageScale="1" pageWidth="420" pageHeight="300" math="0" shadow="0">
      <root>
        <mxCell id="0" />
        <mxCell id="1" parent="0" />
        <mxCell id="_b0gw2F4YtaR68HjLUhR-1" value="货箱/货架信息管理模块" style="fontSize=19;fontStyle=1" parent="1" vertex="1">
          <mxGeometry x="291" y="60" width="260" height="60" as="geometry" />
        </mxCell>
        <mxCell id="_b0gw2F4YtaR68HjLUhR-2" value="货箱信息管理" style="fontSize=19;fontStyle=1" parent="1" vertex="1">
          <mxGeometry x="140" y="200" width="170" height="60" as="geometry" />
        </mxCell>
        <mxCell id="_b0gw2F4YtaR68HjLUhR-4" value="货架信息管理" style="fontSize=19;fontStyle=1" parent="1" vertex="1">
          <mxGeometry x="530" y="200" width="170" height="60" as="geometry" />
        </mxCell>
        <mxCell id="_b0gw2F4YtaR68HjLUhR-5" value="查询&#xa;货箱&#xa;信息" style="fontSize=19;fontStyle=1" parent="1" vertex="1">
          <mxGeometry x="60" y="330" width="60" height="150" as="geometry" />
        </mxCell>
        <mxCell id="_b0gw2F4YtaR68HjLUhR-6" value="添加&#xa;货箱&#xa;信息" style="fontSize=19;fontStyle=1" parent="1" vertex="1">
          <mxGeometry x="150" y="330" width="60" height="150" as="geometry" />
        </mxCell>
        <mxCell id="_b0gw2F4YtaR68HjLUhR-7" value="修改&#xa;货箱&#xa;信息" style="fontSize=19;fontStyle=1" parent="1" vertex="1">
          <mxGeometry x="240" y="330" width="60" height="150" as="geometry" />
        </mxCell>
        <mxCell id="_b0gw2F4YtaR68HjLUhR-8" value="修改&#xa;货箱&#xa;信息" style="fontSize=19;fontStyle=1" parent="1" vertex="1">
          <mxGeometry x="330" y="330" width="60" height="150" as="geometry" />
        </mxCell>
        <mxCell id="QbTS3-12zqG2fbcWgSG8-3" value="" style="edgeStyle=orthogonalEdgeStyle;rounded=0;orthogonalLoop=1;jettySize=auto;html=1;fontSize=19;fontColor=#000000;" edge="1" parent="1" source="_b0gw2F4YtaR68HjLUhR-9" target="_b0gw2F4YtaR68HjLUhR-10">
          <mxGeometry relative="1" as="geometry" />
        </mxCell>
        <mxCell id="_b0gw2F4YtaR68HjLUhR-9" value="查询&#xa;货架&#xa;信息" style="fontSize=19;fontStyle=1" parent="1" vertex="1">
          <mxGeometry x="450" y="330" width="60" height="150" as="geometry" />
        </mxCell>
        <mxCell id="_b0gw2F4YtaR68HjLUhR-10" value="添加&#xa;货架&#xa;信息" style="fontSize=19;fontStyle=1" parent="1" vertex="1">
          <mxGeometry x="540" y="330" width="60" height="150" as="geometry" />
        </mxCell>
        <mxCell id="_b0gw2F4YtaR68HjLUhR-11" value="修改&#xa;货架&#xa;信息" style="fontSize=19;fontStyle=1" parent="1" vertex="1">
          <mxGeometry x="630" y="330" width="60" height="150" as="geometry" />
        </mxCell>
        <mxCell id="_b0gw2F4YtaR68HjLUhR-12" value="删除&#xa;货架&#xa;信息" style="fontSize=19;fontStyle=1" parent="1" vertex="1">
          <mxGeometry x="720" y="330" width="60" height="150" as="geometry" />
        </mxCell>
        <mxCell id="_b0gw2F4YtaR68HjLUhR-16" value="" style="endArrow=none;html=1;fontSize=19;entryX=0.496;entryY=1;entryDx=0;entryDy=0;entryPerimeter=0;" parent="1" target="_b0gw2F4YtaR68HjLUhR-1" edge="1">
          <mxGeometry width="50" height="50" relative="1" as="geometry">
            <mxPoint x="420" y="160" as="sourcePoint" />
            <mxPoint x="420" y="130" as="targetPoint" />
          </mxGeometry>
        </mxCell>
        <mxCell id="_b0gw2F4YtaR68HjLUhR-17" value="" style="endArrow=none;html=1;fontSize=19;" parent="1" edge="1">
          <mxGeometry width="50" height="50" relative="1" as="geometry">
            <mxPoint x="225" y="160" as="sourcePoint" />
            <mxPoint x="615" y="160" as="targetPoint" />
          </mxGeometry>
        </mxCell>
        <mxCell id="_b0gw2F4YtaR68HjLUhR-18" value="" style="endArrow=none;html=1;fontSize=19;exitX=0.5;exitY=0;exitDx=0;exitDy=0;" parent="1" source="_b0gw2F4YtaR68HjLUhR-2" edge="1">
          <mxGeometry width="50" height="50" relative="1" as="geometry">
            <mxPoint x="390" y="410" as="sourcePoint" />
            <mxPoint x="225" y="160" as="targetPoint" />
          </mxGeometry>
        </mxCell>
        <mxCell id="_b0gw2F4YtaR68HjLUhR-20" value="" style="endArrow=none;html=1;fontSize=19;exitX=0.5;exitY=0;exitDx=0;exitDy=0;" parent="1" source="_b0gw2F4YtaR68HjLUhR-4" edge="1">
          <mxGeometry width="50" height="50" relative="1" as="geometry">
            <mxPoint x="235" y="210" as="sourcePoint" />
            <mxPoint x="615" y="160" as="targetPoint" />
          </mxGeometry>
        </mxCell>
        <mxCell id="_b0gw2F4YtaR68HjLUhR-21" value="" style="endArrow=none;html=1;fontSize=19;entryX=0.5;entryY=1;entryDx=0;entryDy=0;" parent="1" target="_b0gw2F4YtaR68HjLUhR-2" edge="1">
          <mxGeometry width="50" height="50" relative="1" as="geometry">
            <mxPoint x="225" y="295" as="sourcePoint" />
            <mxPoint x="440" y="360" as="targetPoint" />
          </mxGeometry>
        </mxCell>
        <mxCell id="_b0gw2F4YtaR68HjLUhR-22" value="" style="endArrow=none;html=1;fontSize=19;entryX=0.5;entryY=0;entryDx=0;entryDy=0;" parent="1" target="_b0gw2F4YtaR68HjLUhR-5" edge="1">
          <mxGeometry width="50" height="50" relative="1" as="geometry">
            <mxPoint x="90" y="295" as="sourcePoint" />
            <mxPoint x="440" y="360" as="targetPoint" />
          </mxGeometry>
        </mxCell>
        <mxCell id="_b0gw2F4YtaR68HjLUhR-24" value="" style="endArrow=none;html=1;fontSize=19;entryX=0.5;entryY=0;entryDx=0;entryDy=0;" parent="1" target="_b0gw2F4YtaR68HjLUhR-6" edge="1">
          <mxGeometry width="50" height="50" relative="1" as="geometry">
            <mxPoint x="180" y="295" as="sourcePoint" />
            <mxPoint x="100" y="340" as="targetPoint" />
          </mxGeometry>
        </mxCell>
        <mxCell id="_b0gw2F4YtaR68HjLUhR-25" value="" style="endArrow=none;html=1;fontSize=19;exitX=0.5;exitY=0;exitDx=0;exitDy=0;" parent="1" source="_b0gw2F4YtaR68HjLUhR-7" edge="1">
          <mxGeometry width="50" height="50" relative="1" as="geometry">
            <mxPoint x="390" y="410" as="sourcePoint" />
            <mxPoint x="270" y="295" as="targetPoint" />
          </mxGeometry>
        </mxCell>
        <mxCell id="_b0gw2F4YtaR68HjLUhR-26" value="" style="endArrow=none;html=1;fontSize=19;entryX=0.5;entryY=0;entryDx=0;entryDy=0;" parent="1" target="_b0gw2F4YtaR68HjLUhR-8" edge="1">
          <mxGeometry width="50" height="50" relative="1" as="geometry">
            <mxPoint x="360" y="295" as="sourcePoint" />
            <mxPoint x="440" y="360" as="targetPoint" />
          </mxGeometry>
        </mxCell>
        <mxCell id="_b0gw2F4YtaR68HjLUhR-27" value="" style="endArrow=none;html=1;fontSize=19;" parent="1" edge="1">
          <mxGeometry width="50" height="50" relative="1" as="geometry">
            <mxPoint x="90" y="295" as="sourcePoint" />
            <mxPoint x="360" y="295" as="targetPoint" />
          </mxGeometry>
        </mxCell>
        <mxCell id="_b0gw2F4YtaR68HjLUhR-28" value="" style="endArrow=none;html=1;fontSize=19;entryX=0.5;entryY=1;entryDx=0;entryDy=0;" parent="1" target="_b0gw2F4YtaR68HjLUhR-4" edge="1">
          <mxGeometry width="50" height="50" relative="1" as="geometry">
            <mxPoint x="615" y="295" as="sourcePoint" />
            <mxPoint x="440" y="360" as="targetPoint" />
          </mxGeometry>
        </mxCell>
        <mxCell id="_b0gw2F4YtaR68HjLUhR-29" value="" style="endArrow=none;html=1;fontSize=19;entryX=0.5;entryY=0;entryDx=0;entryDy=0;" parent="1" target="_b0gw2F4YtaR68HjLUhR-9" edge="1">
          <mxGeometry width="50" height="50" relative="1" as="geometry">
            <mxPoint x="480" y="295" as="sourcePoint" />
            <mxPoint x="440" y="360" as="targetPoint" />
          </mxGeometry>
        </mxCell>
        <mxCell id="_b0gw2F4YtaR68HjLUhR-30" value="" style="endArrow=none;html=1;fontSize=19;exitX=0.5;exitY=0;exitDx=0;exitDy=0;" parent="1" source="_b0gw2F4YtaR68HjLUhR-10" edge="1">
          <mxGeometry width="50" height="50" relative="1" as="geometry">
            <mxPoint x="490" y="300" as="sourcePoint" />
            <mxPoint x="570" y="295" as="targetPoint" />
          </mxGeometry>
        </mxCell>
        <mxCell id="_b0gw2F4YtaR68HjLUhR-31" value="" style="endArrow=none;html=1;fontSize=19;entryX=0.5;entryY=0;entryDx=0;entryDy=0;" parent="1" target="_b0gw2F4YtaR68HjLUhR-11" edge="1">
          <mxGeometry width="50" height="50" relative="1" as="geometry">
            <mxPoint x="660" y="295" as="sourcePoint" />
            <mxPoint x="580" y="300" as="targetPoint" />
          </mxGeometry>
        </mxCell>
        <mxCell id="_b0gw2F4YtaR68HjLUhR-32" value="" style="endArrow=none;html=1;fontSize=19;exitX=0.5;exitY=0;exitDx=0;exitDy=0;" parent="1" source="_b0gw2F4YtaR68HjLUhR-12" edge="1">
          <mxGeometry width="50" height="50" relative="1" as="geometry">
            <mxPoint x="670" y="300" as="sourcePoint" />
            <mxPoint x="750" y="295" as="targetPoint" />
          </mxGeometry>
        </mxCell>
        <mxCell id="_b0gw2F4YtaR68HjLUhR-33" value="" style="endArrow=none;html=1;fontSize=19;" parent="1" edge="1">
          <mxGeometry width="50" height="50" relative="1" as="geometry">
            <mxPoint x="480" y="295" as="sourcePoint" />
            <mxPoint x="750" y="295" as="targetPoint" />
          </mxGeometry>
        </mxCell>
      </root>
    </mxGraphModel>
  </diagram>
  <diagram id="v1sgXTYJ5n-medCUEibM" name="样品库监控信息管理模块">
    <mxGraphModel dx="1422" dy="776" grid="1" gridSize="10" guides="1" tooltips="1" connect="1" arrows="1" fold="1" page="1" pageScale="1" pageWidth="1000" pageHeight="700" math="0" shadow="0">
      <root>
        <mxCell id="5f5NmWaHMzu8fak2xNFs-0" />
        <mxCell id="5f5NmWaHMzu8fak2xNFs-1" parent="5f5NmWaHMzu8fak2xNFs-0" />
        <mxCell id="x3xoPjE4AajASufUn6pw-0" value="样品库监控信息管理模块" style="fontSize=27;fontStyle=1" vertex="1" parent="5f5NmWaHMzu8fak2xNFs-1">
          <mxGeometry x="320" y="40" width="360" height="80" as="geometry" />
        </mxCell>
        <mxCell id="x3xoPjE4AajASufUn6pw-3" value="样品借出提醒" style="fontSize=27;fontStyle=1" vertex="1" parent="5f5NmWaHMzu8fak2xNFs-1">
          <mxGeometry x="700" y="200" width="240" height="80" as="geometry" />
        </mxCell>
        <mxCell id="x3xoPjE4AajASufUn6pw-4" value="样品借出提醒" style="fontSize=27;fontStyle=1" vertex="1" parent="5f5NmWaHMzu8fak2xNFs-1">
          <mxGeometry x="380" y="200" width="240" height="80" as="geometry" />
        </mxCell>
        <mxCell id="x3xoPjE4AajASufUn6pw-5" value="样品借出提醒" style="fontSize=27;fontStyle=1" vertex="1" parent="5f5NmWaHMzu8fak2xNFs-1">
          <mxGeometry x="60" y="200" width="240" height="80" as="geometry" />
        </mxCell>
        <mxCell id="ZNghoPCr7eVECDR4CIxD-0" value="3D&#xa;样品库&#xa;状态&#xa;显示" style="fontSize=19;fontStyle=1" vertex="1" parent="5f5NmWaHMzu8fak2xNFs-1">
          <mxGeometry x="80" y="360" width="80" height="160" as="geometry" />
        </mxCell>
        <mxCell id="ZNghoPCr7eVECDR4CIxD-1" value="维护&#xa;状态&#xa;文字&#xa;提醒" style="fontSize=19;fontStyle=1" vertex="1" parent="5f5NmWaHMzu8fak2xNFs-1">
          <mxGeometry x="200" y="360" width="80" height="160" as="geometry" />
        </mxCell>
        <mxCell id="ZNghoPCr7eVECDR4CIxD-2" value="" style="endArrow=none;html=1;fontSize=27;fontColor=#000000;entryX=0.5;entryY=1;entryDx=0;entryDy=0;exitX=0.5;exitY=0;exitDx=0;exitDy=0;" edge="1" parent="5f5NmWaHMzu8fak2xNFs-1" source="x3xoPjE4AajASufUn6pw-4" target="x3xoPjE4AajASufUn6pw-0">
          <mxGeometry width="50" height="50" relative="1" as="geometry">
            <mxPoint x="500" y="160" as="sourcePoint" />
            <mxPoint x="570" y="350" as="targetPoint" />
          </mxGeometry>
        </mxCell>
        <mxCell id="ZNghoPCr7eVECDR4CIxD-3" value="" style="endArrow=none;html=1;fontSize=27;fontColor=#000000;entryX=0.5;entryY=0;entryDx=0;entryDy=0;" edge="1" parent="5f5NmWaHMzu8fak2xNFs-1" target="x3xoPjE4AajASufUn6pw-5">
          <mxGeometry width="50" height="50" relative="1" as="geometry">
            <mxPoint x="180" y="160" as="sourcePoint" />
            <mxPoint x="570" y="350" as="targetPoint" />
          </mxGeometry>
        </mxCell>
        <mxCell id="ZNghoPCr7eVECDR4CIxD-4" value="" style="endArrow=none;html=1;fontSize=27;fontColor=#000000;entryX=0.5;entryY=0;entryDx=0;entryDy=0;" edge="1" parent="5f5NmWaHMzu8fak2xNFs-1" target="x3xoPjE4AajASufUn6pw-3">
          <mxGeometry width="50" height="50" relative="1" as="geometry">
            <mxPoint x="820" y="160" as="sourcePoint" />
            <mxPoint x="570" y="350" as="targetPoint" />
          </mxGeometry>
        </mxCell>
        <mxCell id="ZNghoPCr7eVECDR4CIxD-5" value="" style="endArrow=none;html=1;fontSize=27;fontColor=#000000;" edge="1" parent="5f5NmWaHMzu8fak2xNFs-1">
          <mxGeometry width="50" height="50" relative="1" as="geometry">
            <mxPoint x="180" y="160" as="sourcePoint" />
            <mxPoint x="820" y="160" as="targetPoint" />
          </mxGeometry>
        </mxCell>
        <mxCell id="ZNghoPCr7eVECDR4CIxD-6" value="" style="endArrow=none;html=1;fontSize=27;fontColor=#000000;entryX=0.5;entryY=1;entryDx=0;entryDy=0;" edge="1" parent="5f5NmWaHMzu8fak2xNFs-1" target="x3xoPjE4AajASufUn6pw-5">
          <mxGeometry width="50" height="50" relative="1" as="geometry">
            <mxPoint x="180" y="320" as="sourcePoint" />
            <mxPoint x="570" y="350" as="targetPoint" />
          </mxGeometry>
        </mxCell>
        <mxCell id="ZNghoPCr7eVECDR4CIxD-7" value="" style="endArrow=none;html=1;fontSize=27;fontColor=#000000;" edge="1" parent="5f5NmWaHMzu8fak2xNFs-1">
          <mxGeometry width="50" height="50" relative="1" as="geometry">
            <mxPoint x="240" y="320" as="sourcePoint" />
            <mxPoint x="120" y="320" as="targetPoint" />
          </mxGeometry>
        </mxCell>
        <mxCell id="ZNghoPCr7eVECDR4CIxD-8" value="" style="endArrow=none;html=1;fontSize=27;fontColor=#000000;exitX=0.5;exitY=0;exitDx=0;exitDy=0;" edge="1" parent="5f5NmWaHMzu8fak2xNFs-1" source="ZNghoPCr7eVECDR4CIxD-0">
          <mxGeometry width="50" height="50" relative="1" as="geometry">
            <mxPoint x="520" y="400" as="sourcePoint" />
            <mxPoint x="120" y="320" as="targetPoint" />
          </mxGeometry>
        </mxCell>
        <mxCell id="ZNghoPCr7eVECDR4CIxD-9" value="" style="endArrow=none;html=1;fontSize=27;fontColor=#000000;exitX=0.5;exitY=0;exitDx=0;exitDy=0;" edge="1" parent="5f5NmWaHMzu8fak2xNFs-1" source="ZNghoPCr7eVECDR4CIxD-1">
          <mxGeometry width="50" height="50" relative="1" as="geometry">
            <mxPoint x="520" y="400" as="sourcePoint" />
            <mxPoint x="240" y="320" as="targetPoint" />
          </mxGeometry>
        </mxCell>
      </root>
    </mxGraphModel>
  </diagram>
</mxfile>
